<?xml version="1.0" standalone="no"?>
<!DOCTYPE svg PUBLIC "-//W3C//DTD SVG 20010904//EN"
 "http://www.w3.org/TR/2001/REC-SVG-20010904/DTD/svg10.dtd">
<svg version="1.0" xmlns="http://www.w3.org/2000/svg"
 width="512.000000pt" height="512.000000pt" viewBox="0 0 512.000000 512.000000"
 preserveAspectRatio="xMidYMid meet">

<g transform="translate(0.000000,512.000000) scale(0.100000,-0.100000)"
fill="#000000" stroke="none">
<path d="M1495 4181 c-462 -92 -850 -171 -863 -175 -28 -9 -62 -62 -62 -96 0
-36 33 -85 68 -99 27 -11 119 5 874 154 463 91 858 171 875 176 105 33 91 191
-17 204 -20 2 -384 -66 -875 -164z"/>
<path d="M2680 3968 c-25 -5 -281 -56 -570 -113 -1425 -282 -1545 -307 -1577
-326 -45 -28 -102 -95 -125 -146 -28 -64 -25 -121 21 -352 22 -113 39 -206 37
-208 -1 -2 -72 -17 -157 -34 -134 -27 -158 -34 -183 -59 -22 -22 -29 -37 -28
-67 0 -53 179 -951 197 -991 10 -21 28 -38 49 -47 31 -13 48 -12 190 17 86 17
158 29 161 26 2 -2 11 -38 20 -79 31 -149 113 -225 280 -259 115 -24 145 -20
180 22 42 50 29 129 -25 158 -11 6 -60 19 -110 29 -50 10 -94 21 -97 24 -9 10
-160 787 -154 791 7 4 -21 -1 1431 286 558 110 1071 212 1140 226 108 22 183
28 545 44 606 28 643 28 700 0 79 -38 95 -74 148 -342 56 -278 57 -294 20
-309 -61 -25 -75 -34 -89 -61 -24 -47 -18 -86 20 -124 25 -25 43 -34 68 -34
113 1 240 145 240 273 0 81 -89 512 -119 575 -36 77 -120 163 -200 205 -115
59 -121 60 -661 37 -267 -12 -488 -17 -492 -13 -4 4 -128 179 -274 388 -147
209 -282 392 -299 407 -69 59 -175 80 -287 56z m350 -500 c118 -167 229 -324
247 -349 l33 -46 -444 -88 c-244 -48 -452 -88 -462 -88 -15 -2 -27 45 -91 368
-40 204 -72 377 -70 385 1 10 71 28 257 66 140 29 269 52 286 53 30 1 41 -13
244 -301z m-928 -230 c41 -211 74 -385 72 -387 -8 -9 -749 -150 -755 -143 -11
12 -152 752 -145 759 5 5 705 149 741 152 6 1 44 -168 87 -381z m-973 -185
c41 -208 74 -382 75 -387 1 -10 -451 -102 -460 -94 -8 9 -144 688 -144 723 0
19 5 37 12 41 8 5 281 63 439 93 3 1 38 -169 78 -376z m-615 -460 c13 -44 138
-704 134 -708 -7 -7 -170 -37 -174 -32 -5 4 -144 695 -144 712 0 7 35 19 78
27 102 21 100 21 106 1z"/>
<path d="M4001 2494 c-145 -39 -271 -144 -341 -286 -37 -74 -43 -97 -47 -170
-9 -137 28 -247 121 -362 l45 -54 -67 -27 c-147 -58 -364 -191 -502 -306 l-73
-62 -116 22 c-64 12 -156 26 -206 32 -102 13 -503 16 -583 4 l-53 -7 21 33
c62 102 78 271 37 389 -65 183 -227 321 -413 352 -228 38 -482 -127 -554 -361
-53 -168 1 -373 129 -495 34 -33 39 -46 16 -46 -27 0 -458 -128 -600 -178
-402 -143 -729 -300 -766 -368 -29 -55 -3 -125 55 -149 42 -18 66 -11 150 43
220 143 764 343 1239 456 608 146 1173 169 1579 66 42 -11 87 -20 101 -20 17
0 61 30 133 91 249 208 496 334 724 370 91 14 254 7 333 -15 179 -49 386 -209
502 -389 34 -53 108 -73 153 -41 33 23 55 72 48 107 -14 69 -197 280 -331 380
-65 49 -195 122 -248 140 -6 2 8 28 31 58 85 113 121 243 102 367 -46 288
-351 498 -619 426z m252 -227 c198 -83 213 -411 24 -521 -78 -45 -198 -52
-291 -17 -163 63 -218 312 -103 462 75 99 237 132 370 76z m-2383 -443 c61
-19 110 -61 145 -125 27 -49 30 -63 30 -149 0 -84 -3 -101 -27 -146 -53 -100
-138 -148 -263 -148 -125 0 -210 48 -263 148 -24 45 -27 62 -27 146 0 102 13
140 70 208 66 78 207 106 335 66z"/>
<path d="M3070 1910 c-162 -31 -373 -72 -469 -90 -151 -29 -179 -37 -205 -61
-26 -23 -31 -35 -31 -74 0 -40 5 -51 33 -76 19 -17 44 -29 60 -29 15 0 247 42
515 93 456 88 490 95 515 121 21 21 27 36 27 72 0 39 -5 50 -33 75 -44 39 -59
38 -412 -31z"/>
</g>
</svg>
